<?xml version="1.0" encoding="UTF-8" standalone="no"?>
<svg width="32" height="32" viewBox="0 0 32 32" fill="none" xmlns="http://www.w3.org/2000/svg">
  <!-- Background Circle -->
  <circle cx="16" cy="16" r="14" fill="#FFFFFF"/>
  
  <!-- Baseball Seams -->
  <path d="M9.5 6.5C7.5 8.5 6 11 5.5 14" stroke="#D43A33" stroke-width="1.5" stroke-linecap="round"/>
  <path d="M22.5 6.5C24.5 8.5 26 11 26.5 14" stroke="#D43A33" stroke-width="1.5" stroke-linecap="round"/>
  <path d="M9.5 25.5C7.5 23.5 6 21 5.5 18" stroke="#D43A33" stroke-width="1.5" stroke-linecap="round"/>
  <path d="M22.5 25.5C24.5 23.5 26 21 26.5 18" stroke="#D43A33" stroke-width="1.5" stroke-linecap="round"/>
  
  <!-- Additional Seams -->
  <path d="M5 16C8 16 11 17 13 19" stroke="#D43A33" stroke-width="1.5" stroke-linecap="round"/>
  <path d="M27 16C24 16 21 17 19 19" stroke="#D43A33" stroke-width="1.5" stroke-linecap="round"/>
  <path d="M13 13C11 11 8 10 5 10" stroke="#D43A33" stroke-width="1.5" stroke-linecap="round"/>
  <path d="M19 13C21 11 24 10 27 10" stroke="#D43A33" stroke-width="1.5" stroke-linecap="round"/>
  
  <!-- Outer Circle -->
  <circle cx="16" cy="16" r="14" stroke="#333333" stroke-width="2" fill="none"/>
</svg>